# xmcd CD database file
#
# Track frame offsets:
#	150
#	18887
#	34460
#
# Disc length: 704 seconds
#
# Revision: 0
# Processed by: cddbd v1.5.1PL2 Copyright (c) Steve Scherf et al.
# Submitted via: CDex 1.51
#
DISCID=1c02be03
DTITLE=KAN - カレーライス
DYEAR=2006
DGENRE=Pop
TTITLE0=カレーライス
TTITLE1=アイ・ラブ・ユー
TTITLE2=カレーライス（歌ぬき）
EXTD=YEAR: 2006
EXTT0=
EXTT1=
EXTT2=
PLAYORDER=
